<svg xmlns="http://www.w3.org/2000/svg" viewBox="0 0 490 70" shape-rendering="crispEdges" role="img" aria-label="LOCAL-MIRROR">
<g fill="#1f2328">
<rect x="10" y="10" width="10" height="10"/>
<rect x="50" y="10" width="10" height="10"/>
<rect x="60" y="10" width="10" height="10"/>
<rect x="70" y="10" width="10" height="10"/>
<rect x="90" y="10" width="10" height="10"/>
<rect x="100" y="10" width="10" height="10"/>
<rect x="110" y="10" width="10" height="10"/>
<rect x="130" y="10" width="10" height="10"/>
<rect x="140" y="10" width="10" height="10"/>
<rect x="150" y="10" width="10" height="10"/>
<rect x="170" y="10" width="10" height="10"/>
<rect x="230" y="10" width="10" height="10" opacity="0.55"/>
<rect x="270" y="10" width="10" height="10" opacity="0.55"/>
<rect x="290" y="10" width="10" height="10" opacity="0.55"/>
<rect x="300" y="10" width="10" height="10" opacity="0.55"/>
<rect x="310" y="10" width="10" height="10" opacity="0.55"/>
<rect x="330" y="10" width="10" height="10" opacity="0.55"/>
<rect x="340" y="10" width="10" height="10" opacity="0.55"/>
<rect x="350" y="10" width="10" height="10" opacity="0.55"/>
<rect x="370" y="10" width="10" height="10" opacity="0.55"/>
<rect x="380" y="10" width="10" height="10" opacity="0.55"/>
<rect x="390" y="10" width="10" height="10" opacity="0.55"/>
<rect x="410" y="10" width="10" height="10" opacity="0.55"/>
<rect x="420" y="10" width="10" height="10" opacity="0.55"/>
<rect x="430" y="10" width="10" height="10" opacity="0.55"/>
<rect x="450" y="10" width="10" height="10" opacity="0.55"/>
<rect x="460" y="10" width="10" height="10" opacity="0.55"/>
<rect x="470" y="10" width="10" height="10" opacity="0.55"/>
<rect x="10" y="20" width="10" height="10"/>
<rect x="50" y="20" width="10" height="10"/>
<rect x="70" y="20" width="10" height="10"/>
<rect x="90" y="20" width="10" height="10"/>
<rect x="130" y="20" width="10" height="10"/>
<rect x="150" y="20" width="10" height="10"/>
<rect x="170" y="20" width="10" height="10"/>
<rect x="230" y="20" width="10" height="10" opacity="0.55"/>
<rect x="240" y="20" width="10" height="10" opacity="0.55"/>
<rect x="260" y="20" width="10" height="10" opacity="0.55"/>
<rect x="270" y="20" width="10" height="10" opacity="0.55"/>
<rect x="300" y="20" width="10" height="10" opacity="0.55"/>
<rect x="330" y="20" width="10" height="10" opacity="0.55"/>
<rect x="350" y="20" width="10" height="10" opacity="0.55"/>
<rect x="370" y="20" width="10" height="10" opacity="0.55"/>
<rect x="390" y="20" width="10" height="10" opacity="0.55"/>
<rect x="410" y="20" width="10" height="10" opacity="0.55"/>
<rect x="430" y="20" width="10" height="10" opacity="0.55"/>
<rect x="450" y="20" width="10" height="10" opacity="0.55"/>
<rect x="470" y="20" width="10" height="10" opacity="0.55"/>
<rect x="10" y="30" width="10" height="10"/>
<rect x="50" y="30" width="10" height="10"/>
<rect x="70" y="30" width="10" height="10"/>
<rect x="90" y="30" width="10" height="10"/>
<rect x="130" y="30" width="10" height="10"/>
<rect x="140" y="30" width="10" height="10"/>
<rect x="150" y="30" width="10" height="10"/>
<rect x="170" y="30" width="10" height="10"/>
<rect x="200" y="30" width="10" height="10"/>
<rect x="210" y="30" width="10" height="10"/>
<rect x="230" y="30" width="10" height="10" opacity="0.55"/>
<rect x="250" y="30" width="10" height="10" opacity="0.55"/>
<rect x="270" y="30" width="10" height="10" opacity="0.55"/>
<rect x="300" y="30" width="10" height="10" opacity="0.55"/>
<rect x="330" y="30" width="10" height="10" opacity="0.55"/>
<rect x="340" y="30" width="10" height="10" opacity="0.55"/>
<rect x="370" y="30" width="10" height="10" opacity="0.55"/>
<rect x="380" y="30" width="10" height="10" opacity="0.55"/>
<rect x="410" y="30" width="10" height="10" opacity="0.55"/>
<rect x="430" y="30" width="10" height="10" opacity="0.55"/>
<rect x="450" y="30" width="10" height="10" opacity="0.55"/>
<rect x="460" y="30" width="10" height="10" opacity="0.55"/>
<rect x="10" y="40" width="10" height="10"/>
<rect x="50" y="40" width="10" height="10"/>
<rect x="70" y="40" width="10" height="10"/>
<rect x="90" y="40" width="10" height="10"/>
<rect x="130" y="40" width="10" height="10"/>
<rect x="150" y="40" width="10" height="10"/>
<rect x="170" y="40" width="10" height="10"/>
<rect x="230" y="40" width="10" height="10" opacity="0.55"/>
<rect x="270" y="40" width="10" height="10" opacity="0.55"/>
<rect x="300" y="40" width="10" height="10" opacity="0.55"/>
<rect x="330" y="40" width="10" height="10" opacity="0.55"/>
<rect x="350" y="40" width="10" height="10" opacity="0.55"/>
<rect x="370" y="40" width="10" height="10" opacity="0.55"/>
<rect x="390" y="40" width="10" height="10" opacity="0.55"/>
<rect x="410" y="40" width="10" height="10" opacity="0.55"/>
<rect x="430" y="40" width="10" height="10" opacity="0.55"/>
<rect x="450" y="40" width="10" height="10" opacity="0.55"/>
<rect x="470" y="40" width="10" height="10" opacity="0.55"/>
<rect x="10" y="50" width="10" height="10"/>
<rect x="20" y="50" width="10" height="10"/>
<rect x="30" y="50" width="10" height="10"/>
<rect x="50" y="50" width="10" height="10"/>
<rect x="60" y="50" width="10" height="10"/>
<rect x="70" y="50" width="10" height="10"/>
<rect x="90" y="50" width="10" height="10"/>
<rect x="100" y="50" width="10" height="10"/>
<rect x="110" y="50" width="10" height="10"/>
<rect x="130" y="50" width="10" height="10"/>
<rect x="150" y="50" width="10" height="10"/>
<rect x="170" y="50" width="10" height="10"/>
<rect x="180" y="50" width="10" height="10"/>
<rect x="190" y="50" width="10" height="10"/>
<rect x="230" y="50" width="10" height="10" opacity="0.55"/>
<rect x="270" y="50" width="10" height="10" opacity="0.55"/>
<rect x="290" y="50" width="10" height="10" opacity="0.55"/>
<rect x="300" y="50" width="10" height="10" opacity="0.55"/>
<rect x="310" y="50" width="10" height="10" opacity="0.55"/>
<rect x="330" y="50" width="10" height="10" opacity="0.55"/>
<rect x="350" y="50" width="10" height="10" opacity="0.55"/>
<rect x="370" y="50" width="10" height="10" opacity="0.55"/>
<rect x="390" y="50" width="10" height="10" opacity="0.55"/>
<rect x="410" y="50" width="10" height="10" opacity="0.55"/>
<rect x="420" y="50" width="10" height="10" opacity="0.55"/>
<rect x="430" y="50" width="10" height="10" opacity="0.55"/>
<rect x="450" y="50" width="10" height="10" opacity="0.55"/>
<rect x="470" y="50" width="10" height="10" opacity="0.55"/>
</g>
</svg>
